<?xml version="1.0" encoding="UTF-8"?>
<svg id="Calque_1" data-name="Calque 1" xmlns="http://www.w3.org/2000/svg" viewBox="0 0 46.4 46">
  <defs>
    <style>
      .cls-1 {
        fill: #32b9ec;
        stroke-width: 0px;
      }
    </style>
  </defs>
  <path class="cls-1" d="M39,12.9H9.3c-3.6,0-5.8-3.3-1.3-7.3C10.7,3.2,14.8,0,18.4,0h20.6c3.6,0,6.5,2.9,6.5,6.5s-2.9,6.4-6.5,6.4"/>
  <path class="cls-1" d="M39.9,33.1H10.2c-3.6,0-5.8,3.3-1.3,7.3,2.7,2.4,6.8,5.6,10.4,5.6h20.6c3.6,0,6.5-2.9,6.5-6.5,0-3.5-2.9-6.4-6.5-6.4"/>
  <path class="cls-1" d="M21.9,22.9c0-3.4-2.2-6.2-5.1-6.4H5.1c-2.8.3-5.1,3-5.1,6.4s2.2,6.2,5.1,6.4h11.7c2.9-.2,5.1-3,5.1-6.4"/>
</svg>